<svg width="25" height="25" viewBox="0 0 25 25" fill="none" xmlns="http://www.w3.org/2000/svg">
<path d="M23.7636 12.5009C23.7636 11.419 25.233 10.1576 24.9657 9.15996C24.6894 8.12826 22.7804 7.7712 22.2565 6.86689C21.7255 5.95001 22.366 4.11986 21.6232 3.37523C20.8786 2.63061 19.0486 3.27117 18.1318 2.74186C17.2276 2.21972 16.8723 0.308825 15.8389 0.0325077C14.8414 -0.234839 13.5801 1.23467 12.4982 1.23467C11.4163 1.23467 10.1569 -0.234839 9.15931 0.0325077C8.12768 0.308825 7.77064 2.21793 6.86639 2.74186C5.94959 3.27296 4.11956 2.63241 3.37499 3.37523C2.63042 4.11986 3.27093 5.95001 2.74166 6.86689C2.21956 7.7712 0.308803 8.12646 0.0325053 9.15996C-0.234822 10.1576 1.23458 11.419 1.23458 12.5009C1.23458 13.5828 -0.234822 14.8424 0.0325053 15.84C0.308803 16.8717 2.21777 17.2288 2.74166 18.1331C3.27273 19.05 2.63222 20.8801 3.37499 21.6248C4.11956 22.3694 5.94959 21.7288 6.86639 22.2581C7.77064 22.7803 8.12588 24.6912 9.15931 24.9675C10.1569 25.2348 11.4181 23.7653 12.5 23.7653C13.5819 23.7653 14.8431 25.2348 15.8407 24.9675C16.8723 24.6912 17.2294 22.7821 18.1336 22.2581C19.0504 21.727 20.8804 22.3694 21.625 21.6248C22.3696 20.8801 21.7291 19.05 22.2583 18.1331C22.7804 17.2288 24.6912 16.8735 24.9675 15.84C25.2348 14.8424 23.7654 13.581 23.7654 12.4991L23.7636 12.5009Z" fill="#1F9D70"/>
<path d="M17.4656 9.23914L10.6888 15.942L7.6084 12.8953" stroke="white" stroke-width="2" stroke-linecap="round" stroke-linejoin="round"/>
</svg>
